<svg id="my-svg" width="100%" xmlns="http://www.w3.org/2000/svg" xmlns:xlink="http://www.w3.org/1999/xlink" style="max-width: 1832.27px; background-color: transparent;" viewBox="-8 -8 1832.2734375 469.87060546875" role="graphics-document document" aria-roledescription="flowchart-v2"><style>#my-svg{font-family:DM Sans,Segoe UI,system-ui,-apple-system,sans-serif;font-size:15px;fill:#fcfaf6;}#my-svg .error-icon{fill:#12100e;}#my-svg .error-text{fill:#fcfaf6;stroke:#fcfaf6;}#my-svg .edge-thickness-normal{stroke-width:2px;}#my-svg .edge-thickness-thick{stroke-width:3.5px;}#my-svg .edge-pattern-solid{stroke-dasharray:0;}#my-svg .edge-pattern-dashed{stroke-dasharray:3;}#my-svg .edge-pattern-dotted{stroke-dasharray:2;}#my-svg .marker{fill:#bd774c;stroke:#bd774c;}#my-svg .marker.cross{stroke:#bd774c;}#my-svg svg{font-family:DM Sans,Segoe UI,system-ui,-apple-system,sans-serif;font-size:15px;}#my-svg .label{font-family:DM Sans,Segoe UI,system-ui,-apple-system,sans-serif;color:#fcfaf6;}#my-svg .cluster-label text{fill:#fcfaf6;}#my-svg .cluster-label span,#my-svg p{color:#fcfaf6;}#my-svg .label text,#my-svg span,#my-svg p{fill:#fcfaf6;color:#fcfaf6;}#my-svg .node rect,#my-svg .node circle,#my-svg .node ellipse,#my-svg .node polygon,#my-svg .node path{fill:#1b1916;stroke:#bd774c;stroke-width:1px;}#my-svg .flowchart-label text{text-anchor:middle;}#my-svg .node .katex path{fill:#000;stroke:#000;stroke-width:1px;}#my-svg .node .label{text-align:center;}#my-svg .node.clickable{cursor:pointer;}#my-svg .arrowheadPath{fill:rgba(255, 255, 255, 0);}#my-svg .edgePath .path{stroke:#bd774c;stroke-width:2.0px;}#my-svg .flowchart-link{stroke:#bd774c;fill:none;}#my-svg .edgeLabel{background-color:#090806;text-align:center;}#my-svg .edgeLabel rect{opacity:0.5;background-color:#090806;fill:#090806;}#my-svg .labelBkg{background-color:rgba(9, 8, 6, 0.5);}#my-svg .cluster rect{fill:#12100e;stroke:#5c5b57;stroke-width:1px;}#my-svg .cluster text{fill:#fcfaf6;}#my-svg .cluster span,#my-svg p{color:#fcfaf6;}#my-svg div.mermaidTooltip{position:absolute;text-align:center;max-width:200px;padding:2px;font-family:DM Sans,Segoe UI,system-ui,-apple-system,sans-serif;font-size:12px;background:#12100e;border:1px solid #5c5b57;border-radius:2px;pointer-events:none;z-index:100;}#my-svg .flowchartTitleText{text-anchor:middle;font-size:18px;fill:#fcfaf6;}#my-svg :root{--mermaid-font-family:"trebuchet ms",verdana,arial,sans-serif;}</style><g><marker id="my-svg_flowchart-pointEnd" class="marker flowchart" viewBox="0 0 10 10" refX="6" refY="5" markerUnits="userSpaceOnUse" markerWidth="12" markerHeight="12" orient="auto"><path d="M 0 0 L 10 5 L 0 10 z" class="arrowMarkerPath" style="stroke-width: 1; stroke-dasharray: 1, 0;"/></marker><marker id="my-svg_flowchart-pointStart" class="marker flowchart" viewBox="0 0 10 10" refX="4.5" refY="5" markerUnits="userSpaceOnUse" markerWidth="12" markerHeight="12" orient="auto"><path d="M 0 5 L 10 10 L 10 0 z" class="arrowMarkerPath" style="stroke-width: 1; stroke-dasharray: 1, 0;"/></marker><marker id="my-svg_flowchart-circleEnd" class="marker flowchart" viewBox="0 0 10 10" refX="11" refY="5" markerUnits="userSpaceOnUse" markerWidth="11" markerHeight="11" orient="auto"><circle cx="5" cy="5" r="5" class="arrowMarkerPath" style="stroke-width: 1; stroke-dasharray: 1, 0;"/></marker><marker id="my-svg_flowchart-circleStart" class="marker flowchart" viewBox="0 0 10 10" refX="-1" refY="5" markerUnits="userSpaceOnUse" markerWidth="11" markerHeight="11" orient="auto"><circle cx="5" cy="5" r="5" class="arrowMarkerPath" style="stroke-width: 1; stroke-dasharray: 1, 0;"/></marker><marker id="my-svg_flowchart-crossEnd" class="marker cross flowchart" viewBox="0 0 11 11" refX="12" refY="5.2" markerUnits="userSpaceOnUse" markerWidth="11" markerHeight="11" orient="auto"><path d="M 1,1 l 9,9 M 10,1 l -9,9" class="arrowMarkerPath" style="stroke-width: 2; stroke-dasharray: 1, 0;"/></marker><marker id="my-svg_flowchart-crossStart" class="marker cross flowchart" viewBox="0 0 11 11" refX="-1" refY="5.2" markerUnits="userSpaceOnUse" markerWidth="11" markerHeight="11" orient="auto"><path d="M 1,1 l 9,9 M 10,1 l -9,9" class="arrowMarkerPath" style="stroke-width: 2; stroke-dasharray: 1, 0;"/></marker><g class="root"><g class="clusters"><g class="cluster default flowchart-label" id="Resources"><rect style="" rx="0" ry="0" x="0" y="119" width="1816.2734375" height="334.87060546875"/><g class="cluster-label" transform="translate(849.40234375, 119)"><foreignObject width="117.46875" height="18"><div xmlns="http://www.w3.org/1999/xhtml" style="display: inline-block; white-space: nowrap;"><span class="nodeLabel">Resource graph</span></div></foreignObject></g></g><g class="cluster default flowchart-label" id="Orders"><rect style="" rx="0" ry="0" x="20" y="327.87060546875" width="1775.93359375" height="101"/><g class="cluster-label" transform="translate(858.474609375, 327.87060546875)"><foreignObject width="98.984375" height="18"><div xmlns="http://www.w3.org/1999/xhtml" style="display: inline-block; white-space: nowrap;"><span class="nodeLabel">orders plugin</span></div></foreignObject></g></g></g><g class="edgePaths"><path d="M717.971,51L719.517,56.667C721.064,62.333,724.157,73.667,725.703,85C727.25,96.333,727.25,107.667,731.773,120.204C736.297,132.741,745.343,146.481,749.866,153.352L754.39,160.222" id="L-AppHost-Postgres-0" class="edge-thickness-normal edge-pattern-solid flowchart-link LS-AppHost LE-Postgres" style="fill:none;" marker-end="url(#my-svg_flowchart-pointEnd)"/><path d="M809.667,51L831.59,56.667C853.514,62.333,897.36,73.667,919.284,85C941.207,96.333,941.207,107.667,944.663,117.249C948.12,126.832,955.033,134.664,958.489,138.58L961.946,142.496" id="L-AppHost-Redis-0" class="edge-thickness-normal edge-pattern-solid flowchart-link LS-AppHost LE-Redis" style="fill:none;" marker-end="url(#my-svg_flowchart-pointEnd)"/><path d="M574.887,37.941L489.072,45.784C403.258,53.628,231.629,69.314,145.814,82.824C60,96.333,60,107.667,60,127.156C60,146.645,60,174.29,60,203.435C60,232.58,60,263.226,60,284.215C60,305.204,60,316.537,93.416,328.32C126.833,340.103,193.665,352.336,227.081,358.452L260.498,364.568" id="L-AppHost-API-0" class="edge-thickness-normal edge-pattern-solid flowchart-link LS-AppHost LE-API" style="fill:none;" marker-end="url(#my-svg_flowchart-pointEnd)"/><path d="M675.285,51L667.345,56.667C659.406,62.333,643.527,73.667,635.588,85C627.648,96.333,627.648,107.667,627.648,127.156C627.648,146.645,627.648,174.29,627.648,203.435C627.648,232.58,627.648,263.226,627.648,284.215C627.648,305.204,627.648,316.537,656.665,327.515C685.681,338.493,743.715,349.115,772.731,354.426L801.748,359.737" id="L-AppHost-Worker-0" class="edge-thickness-normal edge-pattern-solid flowchart-link LS-AppHost LE-Worker" style="fill:none;" marker-end="url(#my-svg_flowchart-pointEnd)"/><path d="M847.137,39.989L917.615,47.491C988.094,54.993,1129.051,69.996,1199.529,83.165C1270.008,96.333,1270.008,107.667,1270.008,127.156C1270.008,146.645,1270.008,174.29,1270.008,203.435C1270.008,232.58,1270.008,263.226,1270.008,284.215C1270.008,305.204,1270.008,316.537,1299.024,327.515C1328.041,338.493,1386.074,349.115,1415.09,354.426L1444.107,359.737" id="L-AppHost-Saga-0" class="edge-thickness-normal edge-pattern-solid flowchart-link LS-AppHost LE-Saga" style="fill:none;" marker-end="url(#my-svg_flowchart-pointEnd)"/><path d="M745.523,208.405L657.573,222.649C569.622,236.893,393.721,265.382,305.771,285.293C217.82,305.204,217.82,316.537,230.259,327.523C242.697,338.509,267.574,349.148,280.012,354.467L292.451,359.787" id="L-Postgres-API-0" class="edge-thickness-normal edge-pattern-solid flowchart-link LS-Postgres LE-API" style="fill:none;" marker-end="url(#my-svg_flowchart-pointEnd)"/><path d="M785.469,242.057L785.469,250.693C785.469,259.328,785.469,276.599,785.469,290.902C785.469,305.204,785.469,316.537,794.4,326.023C803.331,335.509,821.192,343.148,830.123,346.967L839.054,350.787" id="L-Postgres-Worker-0" class="edge-thickness-normal edge-pattern-solid flowchart-link LS-Postgres LE-Worker" style="fill:none;" marker-end="url(#my-svg_flowchart-pointEnd)"/><path d="M825.414,207.652L925.816,222.022C1026.219,236.392,1227.023,265.131,1327.426,285.168C1427.828,305.204,1427.828,316.537,1436.759,326.023C1445.69,335.509,1463.552,343.148,1472.483,346.967L1481.413,350.787" id="L-Postgres-Saga-0" class="edge-thickness-normal edge-pattern-solid flowchart-link LS-Postgres LE-Saga" style="fill:none;" marker-end="url(#my-svg_flowchart-pointEnd)"/><path d="M917.5,218.802L840.249,231.313C762.997,243.825,608.495,268.848,531.243,287.026C453.992,305.204,453.992,316.537,441.554,327.523C429.115,338.509,404.239,349.148,391.8,354.467L379.362,359.787" id="L-Redis-API-0" class="edge-thickness-normal edge-pattern-solid flowchart-link LS-Redis LE-API" style="fill:none;" marker-end="url(#my-svg_flowchart-pointEnd)"/><path d="M1021.641,259.871L1021.641,265.537C1021.641,271.204,1021.641,282.537,1021.641,293.871C1021.641,305.204,1021.641,316.537,1012.71,326.023C1003.779,335.509,985.917,343.148,976.986,346.967L968.055,350.787" id="L-Redis-Worker-0" class="edge-thickness-normal edge-pattern-solid flowchart-link LS-Redis LE-Worker" style="fill:none;" marker-end="url(#my-svg_flowchart-pointEnd)"/><path d="M1125.781,216.84L1215.484,229.678C1305.188,242.517,1484.594,268.194,1574.297,286.699C1664,305.204,1664,316.537,1655.069,326.023C1646.138,335.509,1628.276,343.148,1619.346,346.967L1610.415,350.787" id="L-Redis-Saga-0" class="edge-thickness-normal edge-pattern-solid flowchart-link LS-Redis LE-Saga" style="fill:none;" marker-end="url(#my-svg_flowchart-pointEnd)"/><path d="M979.657,51L960.698,56.667C941.739,62.333,903.82,73.667,884.861,85C865.902,96.333,865.902,107.667,858.982,121.726C852.062,135.786,838.221,152.572,831.301,160.965L824.38,169.358" id="L-Dashboard-Postgres-0" class="edge-thickness-normal edge-pattern-dotted flowchart-link LS-Dashboard LE-Postgres" style="fill:none;stroke-width:2px;stroke-dasharray:3;"/><path d="M1071.932,51L1073.478,56.667C1075.025,62.333,1078.118,73.667,1079.664,85C1081.211,96.333,1081.211,107.667,1078.218,117.717C1075.225,127.767,1069.24,136.534,1066.247,140.918L1063.254,145.302" id="L-Dashboard-Redis-0" class="edge-thickness-normal edge-pattern-dotted flowchart-link LS-Dashboard LE-Redis" style="fill:none;stroke-width:2px;stroke-dasharray:3;"/><path d="M961.785,37.477L893.545,45.397C825.305,53.318,688.824,69.159,620.584,82.746C552.344,96.333,552.344,107.667,552.344,127.156C552.344,146.645,552.344,174.29,552.344,203.435C552.344,232.58,552.344,263.226,552.344,284.215C552.344,305.204,552.344,316.537,527.97,327.891C503.596,339.245,454.849,350.618,430.475,356.305L406.102,361.992" id="L-Dashboard-API-0" class="edge-thickness-normal edge-pattern-dotted flowchart-link LS-Dashboard LE-API" style="fill:none;stroke-width:2px;stroke-dasharray:3;"/><path d="M1120.571,51L1132.927,56.667C1145.282,62.333,1169.993,73.667,1182.348,85C1194.703,96.333,1194.703,107.667,1194.703,127.156C1194.703,146.645,1194.703,174.29,1194.703,203.435C1194.703,232.58,1194.703,263.226,1194.703,284.215C1194.703,305.204,1194.703,316.537,1162.277,327.828C1129.852,339.119,1065,350.368,1032.574,355.992L1000.148,361.616" id="L-Dashboard-Worker-0" class="edge-thickness-normal edge-pattern-dotted flowchart-link LS-Dashboard LE-Worker" style="fill:none;stroke-width:2px;stroke-dasharray:3;"/><path d="M1168.16,34.304L1267.192,42.753C1366.224,51.203,1564.288,68.101,1663.32,82.217C1762.352,96.333,1762.352,107.667,1762.352,127.156C1762.352,146.645,1762.352,174.29,1762.352,203.435C1762.352,232.58,1762.352,263.226,1762.352,284.215C1762.352,305.204,1762.352,316.537,1742.378,326.864C1722.404,337.191,1682.456,346.512,1662.482,351.173L1642.508,355.833" id="L-Dashboard-Saga-0" class="edge-thickness-normal edge-pattern-dotted flowchart-link LS-Dashboard LE-Saga" style="fill:none;stroke-width:2px;stroke-dasharray:3;"/></g><g class="edgeLabels"><g class="edgeLabel" transform="translate(727.25, 85)"><g class="label" transform="translate(-21.3828125, -9)"><foreignObject width="42.765625" height="18"><div xmlns="http://www.w3.org/1999/xhtml" style="display: inline-block; white-space: nowrap;"><span class="edgeLabel">starts</span></div></foreignObject></g></g><g class="edgeLabel" transform="translate(941.20703125, 85)"><g class="label" transform="translate(-21.3828125, -9)"><foreignObject width="42.765625" height="18"><div xmlns="http://www.w3.org/1999/xhtml" style="display: inline-block; white-space: nowrap;"><span class="edgeLabel">starts</span></div></foreignObject></g></g><g class="edgeLabel" transform="translate(60, 201.935302734375)"><g class="label" transform="translate(-21.3828125, -9)"><foreignObject width="42.765625" height="18"><div xmlns="http://www.w3.org/1999/xhtml" style="display: inline-block; white-space: nowrap;"><span class="edgeLabel">starts</span></div></foreignObject></g></g><g class="edgeLabel" transform="translate(627.6484375, 201.935302734375)"><g class="label" transform="translate(-21.3828125, -9)"><foreignObject width="42.765625" height="18"><div xmlns="http://www.w3.org/1999/xhtml" style="display: inline-block; white-space: nowrap;"><span class="edgeLabel">starts</span></div></foreignObject></g></g><g class="edgeLabel" transform="translate(1270.0078125, 201.935302734375)"><g class="label" transform="translate(-21.3828125, -9)"><foreignObject width="42.765625" height="18"><div xmlns="http://www.w3.org/1999/xhtml" style="display: inline-block; white-space: nowrap;"><span class="edgeLabel">starts</span></div></foreignObject></g></g><g class="edgeLabel" transform="translate(217.8203125, 293.87060546875)"><g class="label" transform="translate(-137.8203125, -9)"><foreignObject width="275.640625" height="18"><div xmlns="http://www.w3.org/1999/xhtml" style="display: inline-block; white-space: nowrap;"><span class="edgeLabel">connection string / service discovery</span></div></foreignObject></g></g><g class="edgeLabel" transform="translate(785.46875, 293.87060546875)"><g class="label" transform="translate(-137.8203125, -9)"><foreignObject width="275.640625" height="18"><div xmlns="http://www.w3.org/1999/xhtml" style="display: inline-block; white-space: nowrap;"><span class="edgeLabel">connection string / service discovery</span></div></foreignObject></g></g><g class="edgeLabel" transform="translate(1427.828125, 293.87060546875)"><g class="label" transform="translate(-137.8203125, -9)"><foreignObject width="275.640625" height="18"><div xmlns="http://www.w3.org/1999/xhtml" style="display: inline-block; white-space: nowrap;"><span class="edgeLabel">connection string / service discovery</span></div></foreignObject></g></g><g class="edgeLabel" transform="translate(453.9921875, 293.87060546875)"><g class="label" transform="translate(-78.3515625, -9)"><foreignObject width="156.703125" height="18"><div xmlns="http://www.w3.org/1999/xhtml" style="display: inline-block; white-space: nowrap;"><span class="edgeLabel">KV cache connection</span></div></foreignObject></g></g><g class="edgeLabel" transform="translate(1021.640625, 293.87060546875)"><g class="label" transform="translate(-78.3515625, -9)"><foreignObject width="156.703125" height="18"><div xmlns="http://www.w3.org/1999/xhtml" style="display: inline-block; white-space: nowrap;"><span class="edgeLabel">KV cache connection</span></div></foreignObject></g></g><g class="edgeLabel" transform="translate(1664, 293.87060546875)"><g class="label" transform="translate(-78.3515625, -9)"><foreignObject width="156.703125" height="18"><div xmlns="http://www.w3.org/1999/xhtml" style="display: inline-block; white-space: nowrap;"><span class="edgeLabel">KV cache connection</span></div></foreignObject></g></g><g class="edgeLabel" transform="translate(865.90234375, 85)"><g class="label" transform="translate(-33.921875, -9)"><foreignObject width="67.84375" height="18"><div xmlns="http://www.w3.org/1999/xhtml" style="display: inline-block; white-space: nowrap;"><span class="edgeLabel">observes</span></div></foreignObject></g></g><g class="edgeLabel" transform="translate(1081.2109375, 85)"><g class="label" transform="translate(-33.921875, -9)"><foreignObject width="67.84375" height="18"><div xmlns="http://www.w3.org/1999/xhtml" style="display: inline-block; white-space: nowrap;"><span class="edgeLabel">observes</span></div></foreignObject></g></g><g class="edgeLabel" transform="translate(552.34375, 201.935302734375)"><g class="label" transform="translate(-33.921875, -9)"><foreignObject width="67.84375" height="18"><div xmlns="http://www.w3.org/1999/xhtml" style="display: inline-block; white-space: nowrap;"><span class="edgeLabel">observes</span></div></foreignObject></g></g><g class="edgeLabel" transform="translate(1194.703125, 201.935302734375)"><g class="label" transform="translate(-33.921875, -9)"><foreignObject width="67.84375" height="18"><div xmlns="http://www.w3.org/1999/xhtml" style="display: inline-block; white-space: nowrap;"><span class="edgeLabel">observes</span></div></foreignObject></g></g><g class="edgeLabel" transform="translate(1762.3515625, 201.935302734375)"><g class="label" transform="translate(-33.921875, -9)"><foreignObject width="67.84375" height="18"><div xmlns="http://www.w3.org/1999/xhtml" style="display: inline-block; white-space: nowrap;"><span class="edgeLabel">observes</span></div></foreignObject></g></g></g><g class="nodes"><g class="node default default flowchart-label" id="flowchart-Postgres-2" data-node="true" data-id="Postgres" transform="translate(785.46875, 201.935302734375)"><path style="" d="M 0,9.747960039655304 a 39.9453125,9.747960039655304 0,0,0 79.890625 0 a 39.9453125,9.747960039655304 0,0,0 -79.890625 0 l 0,60.747960039655304 a 39.9453125,9.747960039655304 0,0,0 79.890625 0 l 0,-60.747960039655304" transform="translate(-39.9453125,-40.12194005948295)"/><g class="label" style="" transform="translate(-32.4453125, -18)"><rect/><foreignObject width="64.890625" height="36"><div xmlns="http://www.w3.org/1999/xhtml" style="display: inline-block; white-space: nowrap;"><span class="nodeLabel">Postgres<br />resource</span></div></foreignObject></g></g><g class="node default default flowchart-label" id="flowchart-Redis-3" data-node="true" data-id="Redis" transform="translate(1021.640625, 201.935302734375)"><path style="" d="M 0,15.623534927332395 a 104.140625,15.623534927332395 0,0,0 208.28125 0 a 104.140625,15.623534927332395 0,0,0 -208.28125 0 l 0,84.6235349273324 a 104.140625,15.623534927332395 0,0,0 208.28125 0 l 0,-84.6235349273324" transform="translate(-104.140625,-57.935302390998594)"/><g class="label" style="" transform="translate(-96.640625, -27)"><rect/><foreignObject width="193.28125" height="54"><div xmlns="http://www.w3.org/1999/xhtml" style="display: inline-block; white-space: nowrap;"><span class="nodeLabel">Redis cache<br />resource<br />(default --cache-backend)</span></div></foreignObject></g></g><g class="node default default flowchart-label" id="flowchart-API-4" data-node="true" data-id="API" transform="translate(335.90625, 378.37060546875)"><rect class="basic label-container" style="" rx="0" ry="0" x="-70.1953125" y="-16.5" width="140.390625" height="33"/><g class="label" style="" transform="translate(-62.6953125, -9)"><rect/><foreignObject width="125.390625" height="18"><div xmlns="http://www.w3.org/1999/xhtml" style="display: inline-block; white-space: nowrap;"><span class="nodeLabel">HTTP API service</span></div></foreignObject></g></g><g class="node default default flowchart-label" id="flowchart-Worker-5" data-node="true" data-id="Worker" transform="translate(903.5546875, 378.37060546875)"><rect class="basic label-container" style="" rx="0" ry="0" x="-96.59375" y="-25.5" width="193.1875" height="51"/><g class="label" style="" transform="translate(-89.09375, -18)"><rect/><foreignObject width="178.1875" height="36"><div xmlns="http://www.w3.org/1999/xhtml" style="display: inline-block; white-space: nowrap;"><span class="nodeLabel">worker<br />(background processor)</span></div></foreignObject></g></g><g class="node default default flowchart-label" id="flowchart-Saga-6" data-node="true" data-id="Saga" transform="translate(1545.9140625, 378.37060546875)"><rect class="basic label-container" style="" rx="0" ry="0" x="-96.59375" y="-25.5" width="193.1875" height="51"/><g class="label" style="" transform="translate(-89.09375, -18)"><rect/><foreignObject width="178.1875" height="36"><div xmlns="http://www.w3.org/1999/xhtml" style="display: inline-block; white-space: nowrap;"><span class="nodeLabel">saga-runner<br />(background processor)</span></div></foreignObject></g></g><g class="node default default flowchart-label" id="flowchart-AppHost-0" data-node="true" data-id="AppHost" transform="translate(711.01171875, 25.5)"><rect class="basic label-container" style="" rx="0" ry="0" x="-136.125" y="-25.5" width="272.25" height="51"/><g class="label" style="" transform="translate(-128.625, -18)"><rect/><foreignObject width="257.25" height="36"><div xmlns="http://www.w3.org/1999/xhtml" style="display: inline-block; white-space: nowrap;"><span class="nodeLabel">Aspire AppHost<br />(declares &amp; starts resource graph)</span></div></foreignObject></g></g><g class="node default default flowchart-label" id="flowchart-Dashboard-1" data-node="true" data-id="Dashboard" transform="translate(1064.97265625, 25.5)"><rect class="basic label-container" style="" rx="0" ry="0" x="-103.1875" y="-25.5" width="206.375" height="51"/><g class="label" style="" transform="translate(-95.6875, -18)"><rect/><foreignObject width="191.375" height="36"><div xmlns="http://www.w3.org/1999/xhtml" style="display: inline-block; white-space: nowrap;"><span class="nodeLabel">Aspire Dashboard<br />(telemetry / logs / traces)</span></div></foreignObject></g></g></g></g></g></svg>