<svg id="my-svg" width="100%" xmlns="http://www.w3.org/2000/svg" xmlns:xlink="http://www.w3.org/1999/xlink" style="max-width: 1227.45px; background-color: transparent;" viewBox="-8 -8 1227.453125 434.243896484375" role="graphics-document document" aria-roledescription="flowchart-v2"><style>#my-svg{font-family:DM Sans,Segoe UI,system-ui,-apple-system,sans-serif;font-size:15px;fill:#fcfaf6;}#my-svg .error-icon{fill:#12100e;}#my-svg .error-text{fill:#fcfaf6;stroke:#fcfaf6;}#my-svg .edge-thickness-normal{stroke-width:2px;}#my-svg .edge-thickness-thick{stroke-width:3.5px;}#my-svg .edge-pattern-solid{stroke-dasharray:0;}#my-svg .edge-pattern-dashed{stroke-dasharray:3;}#my-svg .edge-pattern-dotted{stroke-dasharray:2;}#my-svg .marker{fill:#bd774c;stroke:#bd774c;}#my-svg .marker.cross{stroke:#bd774c;}#my-svg svg{font-family:DM Sans,Segoe UI,system-ui,-apple-system,sans-serif;font-size:15px;}#my-svg .label{font-family:DM Sans,Segoe UI,system-ui,-apple-system,sans-serif;color:#fcfaf6;}#my-svg .cluster-label text{fill:#fcfaf6;}#my-svg .cluster-label span,#my-svg p{color:#fcfaf6;}#my-svg .label text,#my-svg span,#my-svg p{fill:#fcfaf6;color:#fcfaf6;}#my-svg .node rect,#my-svg .node circle,#my-svg .node ellipse,#my-svg .node polygon,#my-svg .node path{fill:#1b1916;stroke:#bd774c;stroke-width:1px;}#my-svg .flowchart-label text{text-anchor:middle;}#my-svg .node .katex path{fill:#000;stroke:#000;stroke-width:1px;}#my-svg .node .label{text-align:center;}#my-svg .node.clickable{cursor:pointer;}#my-svg .arrowheadPath{fill:rgba(255, 255, 255, 0);}#my-svg .edgePath .path{stroke:#bd774c;stroke-width:2.0px;}#my-svg .flowchart-link{stroke:#bd774c;fill:none;}#my-svg .edgeLabel{background-color:#090806;text-align:center;}#my-svg .edgeLabel rect{opacity:0.5;background-color:#090806;fill:#090806;}#my-svg .labelBkg{background-color:rgba(9, 8, 6, 0.5);}#my-svg .cluster rect{fill:#12100e;stroke:#5c5b57;stroke-width:1px;}#my-svg .cluster text{fill:#fcfaf6;}#my-svg .cluster span,#my-svg p{color:#fcfaf6;}#my-svg div.mermaidTooltip{position:absolute;text-align:center;max-width:200px;padding:2px;font-family:DM Sans,Segoe UI,system-ui,-apple-system,sans-serif;font-size:12px;background:#12100e;border:1px solid #5c5b57;border-radius:2px;pointer-events:none;z-index:100;}#my-svg .flowchartTitleText{text-anchor:middle;font-size:18px;fill:#fcfaf6;}#my-svg :root{--mermaid-font-family:"trebuchet ms",verdana,arial,sans-serif;}</style><g><marker id="my-svg_flowchart-pointEnd" class="marker flowchart" viewBox="0 0 10 10" refX="6" refY="5" markerUnits="userSpaceOnUse" markerWidth="12" markerHeight="12" orient="auto"><path d="M 0 0 L 10 5 L 0 10 z" class="arrowMarkerPath" style="stroke-width: 1; stroke-dasharray: 1, 0;"/></marker><marker id="my-svg_flowchart-pointStart" class="marker flowchart" viewBox="0 0 10 10" refX="4.5" refY="5" markerUnits="userSpaceOnUse" markerWidth="12" markerHeight="12" orient="auto"><path d="M 0 5 L 10 10 L 10 0 z" class="arrowMarkerPath" style="stroke-width: 1; stroke-dasharray: 1, 0;"/></marker><marker id="my-svg_flowchart-circleEnd" class="marker flowchart" viewBox="0 0 10 10" refX="11" refY="5" markerUnits="userSpaceOnUse" markerWidth="11" markerHeight="11" orient="auto"><circle cx="5" cy="5" r="5" class="arrowMarkerPath" style="stroke-width: 1; stroke-dasharray: 1, 0;"/></marker><marker id="my-svg_flowchart-circleStart" class="marker flowchart" viewBox="0 0 10 10" refX="-1" refY="5" markerUnits="userSpaceOnUse" markerWidth="11" markerHeight="11" orient="auto"><circle cx="5" cy="5" r="5" class="arrowMarkerPath" style="stroke-width: 1; stroke-dasharray: 1, 0;"/></marker><marker id="my-svg_flowchart-crossEnd" class="marker cross flowchart" viewBox="0 0 11 11" refX="12" refY="5.2" markerUnits="userSpaceOnUse" markerWidth="11" markerHeight="11" orient="auto"><path d="M 1,1 l 9,9 M 10,1 l -9,9" class="arrowMarkerPath" style="stroke-width: 2; stroke-dasharray: 1, 0;"/></marker><marker id="my-svg_flowchart-crossStart" class="marker cross flowchart" viewBox="0 0 11 11" refX="-1" refY="5.2" markerUnits="userSpaceOnUse" markerWidth="11" markerHeight="11" orient="auto"><path d="M 1,1 l 9,9 M 10,1 l -9,9" class="arrowMarkerPath" style="stroke-width: 2; stroke-dasharray: 1, 0;"/></marker><g class="root"><g class="clusters"><g class="cluster default flowchart-label" id="Resources"><rect style="" rx="0" ry="0" x="0" y="119" width="1211.453125" height="299.24388122558594"/><g class="cluster-label" transform="translate(546.9921875, 119)"><foreignObject width="117.46875" height="18"><div xmlns="http://www.w3.org/1999/xhtml" style="display: inline-block; white-space: nowrap;"><span class="nodeLabel">Resource graph</span></div></foreignObject></g></g><g class="cluster default flowchart-label" id="Orders"><rect style="" rx="0" ry="0" x="20" y="292.24388122558594" width="1164.4921875" height="101"/><g class="cluster-label" transform="translate(552.75390625, 292.24388122558594)"><foreignObject width="98.984375" height="18"><div xmlns="http://www.w3.org/1999/xhtml" style="display: inline-block; white-space: nowrap;"><span class="nodeLabel">orders plugin</span></div></foreignObject></g></g></g><g class="edgePaths"><path d="M491.875,51L501.654,56.667C511.432,62.333,530.99,73.667,540.768,85C550.547,96.333,550.547,107.667,553.749,117.697C556.952,127.728,563.356,136.457,566.559,140.821L569.761,145.185" id="L-AppHost-Postgres-0" class="edge-thickness-normal edge-pattern-solid flowchart-link LS-AppHost LE-Postgres" style="fill:none;" marker-end="url(#my-svg_flowchart-pointEnd)"/><path d="M311.746,46.382L269.788,52.818C227.831,59.255,143.915,72.127,101.958,84.23C60,96.333,60,107.667,60,124.187C60,140.707,60,162.415,60,185.622C60,208.829,60,233.537,60,251.557C60,269.577,60,280.911,76.868,291.975C93.736,303.039,127.472,313.834,144.339,319.231L161.207,324.629" id="L-AppHost-API-0" class="edge-thickness-normal edge-pattern-solid flowchart-link LS-AppHost LE-API" style="fill:none;" marker-end="url(#my-svg_flowchart-pointEnd)"/><path d="M449.189,51L449.481,56.667C449.774,62.333,450.36,73.667,450.653,85C450.945,96.333,450.945,107.667,450.945,124.187C450.945,140.707,450.945,162.415,450.945,185.622C450.945,208.829,450.945,233.537,450.945,251.557C450.945,269.577,450.945,280.911,463.125,290.475C475.306,300.039,499.666,307.834,511.846,311.731L524.026,315.629" id="L-AppHost-Worker-0" class="edge-thickness-normal edge-pattern-solid flowchart-link LS-AppHost LE-Worker" style="fill:none;" marker-end="url(#my-svg_flowchart-pointEnd)"/><path d="M583.996,46.056L626.979,52.547C669.961,59.037,755.926,72.019,798.908,84.176C841.891,96.333,841.891,107.667,841.891,124.187C841.891,140.707,841.891,162.415,841.891,185.622C841.891,208.829,841.891,233.537,841.891,251.557C841.891,269.577,841.891,280.911,854.071,290.475C866.251,300.039,890.611,307.834,902.791,311.731L914.972,315.629" id="L-AppHost-Saga-0" class="edge-thickness-normal edge-pattern-solid flowchart-link LS-AppHost LE-Saga" style="fill:none;" marker-end="url(#my-svg_flowchart-pointEnd)"/><path d="M568.82,191.695L510.32,202.787C451.82,213.878,334.82,236.061,276.32,252.819C217.82,269.577,217.82,280.911,217.82,291.361C217.82,301.811,217.82,311.377,217.82,316.161L217.82,320.944" id="L-Postgres-API-0" class="edge-thickness-normal edge-pattern-solid flowchart-link LS-Postgres LE-API" style="fill:none;" marker-end="url(#my-svg_flowchart-pointEnd)"/><path d="M608.766,224.244L608.766,229.911C608.766,235.577,608.766,246.911,608.766,258.244C608.766,269.577,608.766,280.911,608.766,289.861C608.766,298.811,608.766,305.377,608.766,308.661L608.766,311.944" id="L-Postgres-Worker-0" class="edge-thickness-normal edge-pattern-solid flowchart-link LS-Postgres LE-Worker" style="fill:none;" marker-end="url(#my-svg_flowchart-pointEnd)"/><path d="M648.711,191.695L707.211,202.787C765.711,213.878,882.711,236.061,941.211,252.819C999.711,269.577,999.711,280.911,999.711,289.861C999.711,298.811,999.711,305.377,999.711,308.661L999.711,311.944" id="L-Postgres-Saga-0" class="edge-thickness-normal edge-pattern-solid flowchart-link LS-Postgres LE-Saga" style="fill:none;" marker-end="url(#my-svg_flowchart-pointEnd)"/><path d="M704.411,51L697.129,56.667C689.846,62.333,675.28,73.667,667.998,85C660.715,96.333,660.715,107.667,657.391,118.153C654.067,128.638,647.419,138.277,644.096,143.096L640.772,147.915" id="L-Dashboard-Postgres-0" class="edge-thickness-normal edge-pattern-dotted flowchart-link LS-Dashboard LE-Postgres" style="fill:none;stroke-width:2px;stroke-dasharray:3;"/><path d="M633.996,42.482L590.937,49.568C547.878,56.655,461.759,70.827,418.7,83.58C375.641,96.333,375.641,107.667,375.641,124.187C375.641,140.707,375.641,162.415,375.641,185.622C375.641,208.829,375.641,233.537,375.641,251.557C375.641,269.577,375.641,280.911,357.931,292.244C340.222,303.577,304.804,314.911,287.095,320.577L269.385,326.244" id="L-Dashboard-API-0" class="edge-thickness-normal edge-pattern-dotted flowchart-link LS-Dashboard LE-API" style="fill:none;stroke-width:2px;stroke-dasharray:3;"/><path d="M749.785,51L752.585,56.667C755.385,62.333,760.985,73.667,763.786,85C766.586,96.333,766.586,107.667,766.586,124.187C766.586,140.707,766.586,162.415,766.586,185.622C766.586,208.829,766.586,233.537,766.586,251.557C766.586,269.577,766.586,280.911,753.564,290.744C740.543,300.577,714.5,308.911,701.479,313.077L688.457,317.244" id="L-Dashboard-Worker-0" class="edge-thickness-normal edge-pattern-dotted flowchart-link LS-Dashboard LE-Worker" style="fill:none;stroke-width:2px;stroke-dasharray:3;"/><path d="M840.371,40.106L893.231,47.588C946.091,55.071,1051.811,70.035,1104.671,83.184C1157.531,96.333,1157.531,107.667,1157.531,124.187C1157.531,140.707,1157.531,162.415,1157.531,185.622C1157.531,208.829,1157.531,233.537,1157.531,251.557C1157.531,269.577,1157.531,280.911,1144.51,290.744C1131.488,300.577,1105.445,308.911,1092.424,313.077L1079.402,317.244" id="L-Dashboard-Saga-0" class="edge-thickness-normal edge-pattern-dotted flowchart-link LS-Dashboard LE-Saga" style="fill:none;stroke-width:2px;stroke-dasharray:3;"/></g><g class="edgeLabels"><g class="edgeLabel" transform="translate(550.546875, 85)"><g class="label" transform="translate(-21.3828125, -9)"><foreignObject width="42.765625" height="18"><div xmlns="http://www.w3.org/1999/xhtml" style="display: inline-block; white-space: nowrap;"><span class="edgeLabel">starts</span></div></foreignObject></g></g><g class="edgeLabel" transform="translate(60, 184.12194061279297)"><g class="label" transform="translate(-21.3828125, -9)"><foreignObject width="42.765625" height="18"><div xmlns="http://www.w3.org/1999/xhtml" style="display: inline-block; white-space: nowrap;"><span class="edgeLabel">starts</span></div></foreignObject></g></g><g class="edgeLabel" transform="translate(450.9453125, 184.12194061279297)"><g class="label" transform="translate(-21.3828125, -9)"><foreignObject width="42.765625" height="18"><div xmlns="http://www.w3.org/1999/xhtml" style="display: inline-block; white-space: nowrap;"><span class="edgeLabel">starts</span></div></foreignObject></g></g><g class="edgeLabel" transform="translate(841.890625, 184.12194061279297)"><g class="label" transform="translate(-21.3828125, -9)"><foreignObject width="42.765625" height="18"><div xmlns="http://www.w3.org/1999/xhtml" style="display: inline-block; white-space: nowrap;"><span class="edgeLabel">starts</span></div></foreignObject></g></g><g class="edgeLabel" transform="translate(217.8203125, 258.24388122558594)"><g class="label" transform="translate(-137.8203125, -9)"><foreignObject width="275.640625" height="18"><div xmlns="http://www.w3.org/1999/xhtml" style="display: inline-block; white-space: nowrap;"><span class="edgeLabel">connection string / service discovery</span></div></foreignObject></g></g><g class="edgeLabel" transform="translate(608.765625, 258.24388122558594)"><g class="label" transform="translate(-137.8203125, -9)"><foreignObject width="275.640625" height="18"><div xmlns="http://www.w3.org/1999/xhtml" style="display: inline-block; white-space: nowrap;"><span class="edgeLabel">connection string / service discovery</span></div></foreignObject></g></g><g class="edgeLabel" transform="translate(999.7109375, 258.24388122558594)"><g class="label" transform="translate(-137.8203125, -9)"><foreignObject width="275.640625" height="18"><div xmlns="http://www.w3.org/1999/xhtml" style="display: inline-block; white-space: nowrap;"><span class="edgeLabel">connection string / service discovery</span></div></foreignObject></g></g><g class="edgeLabel" transform="translate(660.71484375, 85)"><g class="label" transform="translate(-33.921875, -9)"><foreignObject width="67.84375" height="18"><div xmlns="http://www.w3.org/1999/xhtml" style="display: inline-block; white-space: nowrap;"><span class="edgeLabel">observes</span></div></foreignObject></g></g><g class="edgeLabel" transform="translate(375.640625, 184.12194061279297)"><g class="label" transform="translate(-33.921875, -9)"><foreignObject width="67.84375" height="18"><div xmlns="http://www.w3.org/1999/xhtml" style="display: inline-block; white-space: nowrap;"><span class="edgeLabel">observes</span></div></foreignObject></g></g><g class="edgeLabel" transform="translate(766.5859375, 184.12194061279297)"><g class="label" transform="translate(-33.921875, -9)"><foreignObject width="67.84375" height="18"><div xmlns="http://www.w3.org/1999/xhtml" style="display: inline-block; white-space: nowrap;"><span class="edgeLabel">observes</span></div></foreignObject></g></g><g class="edgeLabel" transform="translate(1157.53125, 184.12194061279297)"><g class="label" transform="translate(-33.921875, -9)"><foreignObject width="67.84375" height="18"><div xmlns="http://www.w3.org/1999/xhtml" style="display: inline-block; white-space: nowrap;"><span class="edgeLabel">observes</span></div></foreignObject></g></g></g><g class="nodes"><g class="node default default flowchart-label" id="flowchart-Postgres-2" data-node="true" data-id="Postgres" transform="translate(608.765625, 184.12194061279297)"><path style="" d="M 0,9.747960039655304 a 39.9453125,9.747960039655304 0,0,0 79.890625 0 a 39.9453125,9.747960039655304 0,0,0 -79.890625 0 l 0,60.747960039655304 a 39.9453125,9.747960039655304 0,0,0 79.890625 0 l 0,-60.747960039655304" transform="translate(-39.9453125,-40.12194005948295)"/><g class="label" style="" transform="translate(-32.4453125, -18)"><rect/><foreignObject width="64.890625" height="36"><div xmlns="http://www.w3.org/1999/xhtml" style="display: inline-block; white-space: nowrap;"><span class="nodeLabel">Postgres<br />resource</span></div></foreignObject></g></g><g class="node default default flowchart-label" id="flowchart-API-3" data-node="true" data-id="API" transform="translate(217.8203125, 342.74388122558594)"><rect class="basic label-container" style="" rx="0" ry="0" x="-70.1953125" y="-16.5" width="140.390625" height="33"/><g class="label" style="" transform="translate(-62.6953125, -9)"><rect/><foreignObject width="125.390625" height="18"><div xmlns="http://www.w3.org/1999/xhtml" style="display: inline-block; white-space: nowrap;"><span class="nodeLabel">HTTP API service</span></div></foreignObject></g></g><g class="node default default flowchart-label" id="flowchart-Worker-4" data-node="true" data-id="Worker" transform="translate(608.765625, 342.74388122558594)"><rect class="basic label-container" style="" rx="0" ry="0" x="-96.59375" y="-25.5" width="193.1875" height="51"/><g class="label" style="" transform="translate(-89.09375, -18)"><rect/><foreignObject width="178.1875" height="36"><div xmlns="http://www.w3.org/1999/xhtml" style="display: inline-block; white-space: nowrap;"><span class="nodeLabel">worker<br />(background processor)</span></div></foreignObject></g></g><g class="node default default flowchart-label" id="flowchart-Saga-5" data-node="true" data-id="Saga" transform="translate(999.7109375, 342.74388122558594)"><rect class="basic label-container" style="" rx="0" ry="0" x="-96.59375" y="-25.5" width="193.1875" height="51"/><g class="label" style="" transform="translate(-89.09375, -18)"><rect/><foreignObject width="178.1875" height="36"><div xmlns="http://www.w3.org/1999/xhtml" style="display: inline-block; white-space: nowrap;"><span class="nodeLabel">saga-runner<br />(background processor)</span></div></foreignObject></g></g><g class="node default default flowchart-label" id="flowchart-AppHost-0" data-node="true" data-id="AppHost" transform="translate(447.87109375, 25.5)"><rect class="basic label-container" style="" rx="0" ry="0" x="-136.125" y="-25.5" width="272.25" height="51"/><g class="label" style="" transform="translate(-128.625, -18)"><rect/><foreignObject width="257.25" height="36"><div xmlns="http://www.w3.org/1999/xhtml" style="display: inline-block; white-space: nowrap;"><span class="nodeLabel">Aspire AppHost<br />(declares &amp; starts resource graph)</span></div></foreignObject></g></g><g class="node default default flowchart-label" id="flowchart-Dashboard-1" data-node="true" data-id="Dashboard" transform="translate(737.18359375, 25.5)"><rect class="basic label-container" style="" rx="0" ry="0" x="-103.1875" y="-25.5" width="206.375" height="51"/><g class="label" style="" transform="translate(-95.6875, -18)"><rect/><foreignObject width="191.375" height="36"><div xmlns="http://www.w3.org/1999/xhtml" style="display: inline-block; white-space: nowrap;"><span class="nodeLabel">Aspire Dashboard<br />(telemetry / logs / traces)</span></div></foreignObject></g></g></g></g></g></svg>