<svg id="my-svg" width="100%" xmlns="http://www.w3.org/2000/svg" xmlns:xlink="http://www.w3.org/1999/xlink" style="max-width: 1160.16px; background-color: transparent;" viewBox="-8 -8 1160.15625 241" role="graphics-document document" aria-roledescription="flowchart-v2"><style>#my-svg{font-family:DM Sans,Segoe UI,system-ui,-apple-system,sans-serif;font-size:15px;fill:#fcfaf6;}#my-svg .error-icon{fill:#12100e;}#my-svg .error-text{fill:#fcfaf6;stroke:#fcfaf6;}#my-svg .edge-thickness-normal{stroke-width:2px;}#my-svg .edge-thickness-thick{stroke-width:3.5px;}#my-svg .edge-pattern-solid{stroke-dasharray:0;}#my-svg .edge-pattern-dashed{stroke-dasharray:3;}#my-svg .edge-pattern-dotted{stroke-dasharray:2;}#my-svg .marker{fill:#bd774c;stroke:#bd774c;}#my-svg .marker.cross{stroke:#bd774c;}#my-svg svg{font-family:DM Sans,Segoe UI,system-ui,-apple-system,sans-serif;font-size:15px;}#my-svg .label{font-family:DM Sans,Segoe UI,system-ui,-apple-system,sans-serif;color:#fcfaf6;}#my-svg .cluster-label text{fill:#fcfaf6;}#my-svg .cluster-label span,#my-svg p{color:#fcfaf6;}#my-svg .label text,#my-svg span,#my-svg p{fill:#fcfaf6;color:#fcfaf6;}#my-svg .node rect,#my-svg .node circle,#my-svg .node ellipse,#my-svg .node polygon,#my-svg .node path{fill:#1b1916;stroke:#bd774c;stroke-width:1px;}#my-svg .flowchart-label text{text-anchor:middle;}#my-svg .node .katex path{fill:#000;stroke:#000;stroke-width:1px;}#my-svg .node .label{text-align:center;}#my-svg .node.clickable{cursor:pointer;}#my-svg .arrowheadPath{fill:rgba(255, 255, 255, 0);}#my-svg .edgePath .path{stroke:#bd774c;stroke-width:2.0px;}#my-svg .flowchart-link{stroke:#bd774c;fill:none;}#my-svg .edgeLabel{background-color:#090806;text-align:center;}#my-svg .edgeLabel rect{opacity:0.5;background-color:#090806;fill:#090806;}#my-svg .labelBkg{background-color:rgba(9, 8, 6, 0.5);}#my-svg .cluster rect{fill:#12100e;stroke:#5c5b57;stroke-width:1px;}#my-svg .cluster text{fill:#fcfaf6;}#my-svg .cluster span,#my-svg p{color:#fcfaf6;}#my-svg div.mermaidTooltip{position:absolute;text-align:center;max-width:200px;padding:2px;font-family:DM Sans,Segoe UI,system-ui,-apple-system,sans-serif;font-size:12px;background:#12100e;border:1px solid #5c5b57;border-radius:2px;pointer-events:none;z-index:100;}#my-svg .flowchartTitleText{text-anchor:middle;font-size:18px;fill:#fcfaf6;}#my-svg :root{--mermaid-font-family:"trebuchet ms",verdana,arial,sans-serif;}</style><g><marker id="my-svg_flowchart-pointEnd" class="marker flowchart" viewBox="0 0 10 10" refX="6" refY="5" markerUnits="userSpaceOnUse" markerWidth="12" markerHeight="12" orient="auto"><path d="M 0 0 L 10 5 L 0 10 z" class="arrowMarkerPath" style="stroke-width: 1; stroke-dasharray: 1, 0;"/></marker><marker id="my-svg_flowchart-pointStart" class="marker flowchart" viewBox="0 0 10 10" refX="4.5" refY="5" markerUnits="userSpaceOnUse" markerWidth="12" markerHeight="12" orient="auto"><path d="M 0 5 L 10 10 L 10 0 z" class="arrowMarkerPath" style="stroke-width: 1; stroke-dasharray: 1, 0;"/></marker><marker id="my-svg_flowchart-circleEnd" class="marker flowchart" viewBox="0 0 10 10" refX="11" refY="5" markerUnits="userSpaceOnUse" markerWidth="11" markerHeight="11" orient="auto"><circle cx="5" cy="5" r="5" class="arrowMarkerPath" style="stroke-width: 1; stroke-dasharray: 1, 0;"/></marker><marker id="my-svg_flowchart-circleStart" class="marker flowchart" viewBox="0 0 10 10" refX="-1" refY="5" markerUnits="userSpaceOnUse" markerWidth="11" markerHeight="11" orient="auto"><circle cx="5" cy="5" r="5" class="arrowMarkerPath" style="stroke-width: 1; stroke-dasharray: 1, 0;"/></marker><marker id="my-svg_flowchart-crossEnd" class="marker cross flowchart" viewBox="0 0 11 11" refX="12" refY="5.2" markerUnits="userSpaceOnUse" markerWidth="11" markerHeight="11" orient="auto"><path d="M 1,1 l 9,9 M 10,1 l -9,9" class="arrowMarkerPath" style="stroke-width: 2; stroke-dasharray: 1, 0;"/></marker><marker id="my-svg_flowchart-crossStart" class="marker cross flowchart" viewBox="0 0 11 11" refX="-1" refY="5.2" markerUnits="userSpaceOnUse" markerWidth="11" markerHeight="11" orient="auto"><path d="M 1,1 l 9,9 M 10,1 l -9,9" class="arrowMarkerPath" style="stroke-width: 2; stroke-dasharray: 1, 0;"/></marker><g class="root"><g class="clusters"><g class="cluster default flowchart-label" id="Trace"><rect style="" rx="0" ry="0" x="152.890625" y="0" width="721.4375" height="225"/><g class="cluster-label" transform="translate(468.6796875, 0)"><foreignObject width="89.859375" height="18"><div xmlns="http://www.w3.org/1999/xhtml" style="display: inline-block; white-space: nowrap;"><span class="nodeLabel">one trace id</span></div></foreignObject></g></g></g><g class="edgePaths"><path d="M102.891,99.5L107.057,99.5C111.224,99.5,119.557,99.5,127.891,99.5C136.224,99.5,144.557,99.5,152.007,99.5C159.457,99.5,166.024,99.5,169.307,99.5L172.591,99.5" id="L-In-SvcSpan-0" class="edge-thickness-normal edge-pattern-solid flowchart-link LS-In LE-SvcSpan" style="fill:none;" marker-end="url(#my-svg_flowchart-pointEnd)"/><path d="M289.141,110.071L306.398,113.351C323.656,116.631,358.172,123.19,391.804,126.47C425.436,129.75,458.185,129.75,474.56,129.75L490.934,129.75" id="L-SvcSpan-WorkerSpan-0" class="edge-thickness-normal edge-pattern-solid flowchart-link LS-SvcSpan LE-WorkerSpan" style="fill:none;" marker-end="url(#my-svg_flowchart-pointEnd)"/><path d="M604.891,144.506L617.159,147.839C629.427,151.171,653.964,157.835,677.949,161.168C701.934,164.5,725.368,164.5,737.085,164.5L748.802,164.5" id="L-WorkerSpan-SagaSpan-0" class="edge-thickness-normal edge-pattern-solid flowchart-link LS-WorkerSpan LE-SagaSpan" style="fill:none;" marker-end="url(#my-svg_flowchart-pointEnd)"/><path d="M289.141,82.289L306.398,76.949C323.656,71.609,358.172,60.93,401.742,55.59C445.313,50.25,497.938,50.25,545.573,50.25C593.208,50.25,635.854,50.25,677.547,50.25C719.24,50.25,759.979,50.25,792.617,50.25C825.255,50.25,849.792,50.25,874.328,50.25C898.865,50.25,923.401,50.25,949.026,54.68C974.65,59.11,1001.363,67.971,1014.72,72.401L1028.076,76.831" id="L-SvcSpan-Otlp-0" class="edge-thickness-normal edge-pattern-dotted flowchart-link LS-SvcSpan LE-Otlp" style="fill:none;stroke-width:2px;stroke-dasharray:3;" marker-end="url(#my-svg_flowchart-pointEnd)"/><path d="M604.891,114.994L617.159,111.661C629.427,108.329,653.964,101.665,686.602,98.332C719.24,95,759.979,95,792.617,95C825.255,95,849.792,95,874.328,95C898.865,95,923.401,95,947.054,95C970.707,95,993.477,95,1004.862,95L1016.247,95" id="L-WorkerSpan-Otlp-0" class="edge-thickness-normal edge-pattern-dotted flowchart-link LS-WorkerSpan LE-Otlp" style="fill:none;stroke-width:2px;stroke-dasharray:3;" marker-end="url(#my-svg_flowchart-pointEnd)"/><path d="M847.336,164.5L851.835,164.5C856.333,164.5,865.331,164.5,882.098,164.5C898.865,164.5,923.401,164.5,952.031,156.071C980.662,147.642,1013.386,130.785,1029.748,122.356L1046.11,113.927" id="L-SagaSpan-Otlp-0" class="edge-thickness-normal edge-pattern-dotted flowchart-link LS-SagaSpan LE-Otlp" style="fill:none;stroke-width:2px;stroke-dasharray:3;" marker-end="url(#my-svg_flowchart-pointEnd)"/></g><g class="edgeLabels"><g class="edgeLabel"><g class="label" transform="translate(0, 0)"><foreignObject width="0" height="0"><div xmlns="http://www.w3.org/1999/xhtml" style="display: inline-block; white-space: nowrap;"><span class="edgeLabel"></span></div></foreignObject></g></g><g class="edgeLabel" transform="translate(392.6875, 129.75)"><g class="label" transform="translate(-78.546875, -9)"><foreignObject width="157.09375" height="18"><div xmlns="http://www.w3.org/1999/xhtml" style="display: inline-block; white-space: nowrap;"><span class="edgeLabel">enqueue propagated</span></div></foreignObject></g></g><g class="edgeLabel" transform="translate(678.5, 164.5)"><g class="label" transform="translate(-37.375, -9)"><foreignObject width="74.75" height="18"><div xmlns="http://www.w3.org/1999/xhtml" style="display: inline-block; white-space: nowrap;"><span class="edgeLabel">continued</span></div></foreignObject></g></g><g class="edgeLabel" transform="translate(678.5, 50.25)"><g class="label" transform="translate(-48.609375, -9)"><foreignObject width="97.21875" height="18"><div xmlns="http://www.w3.org/1999/xhtml" style="display: inline-block; white-space: nowrap;"><span class="edgeLabel">export spans</span></div></foreignObject></g></g><g class="edgeLabel" transform="translate(800.71875, 95)"><g class="label" transform="translate(-48.609375, -9)"><foreignObject width="97.21875" height="18"><div xmlns="http://www.w3.org/1999/xhtml" style="display: inline-block; white-space: nowrap;"><span class="edgeLabel">export spans</span></div></foreignObject></g></g><g class="edgeLabel" transform="translate(947.9375, 164.5)"><g class="label" transform="translate(-48.609375, -9)"><foreignObject width="97.21875" height="18"><div xmlns="http://www.w3.org/1999/xhtml" style="display: inline-block; white-space: nowrap;"><span class="edgeLabel">export spans</span></div></foreignObject></g></g></g><g class="nodes"><g class="node default default flowchart-label" id="flowchart-SvcSpan-1" data-node="true" data-id="SvcSpan" transform="translate(233.515625, 99.5)"><rect class="basic label-container" style="" rx="0" ry="0" x="-55.625" y="-25.5" width="111.25" height="51"/><g class="label" style="" transform="translate(-48.125, -18)"><rect/><foreignObject width="96.25" height="36"><div xmlns="http://www.w3.org/1999/xhtml" style="display: inline-block; white-space: nowrap;"><span class="nodeLabel">Service span<br />handler</span></div></foreignObject></g></g><g class="node default default flowchart-label" id="flowchart-WorkerSpan-2" data-node="true" data-id="WorkerSpan" transform="translate(550.5625, 129.75)"><rect class="basic label-container" style="" rx="0" ry="0" x="-54.328125" y="-25.5" width="108.65625" height="51"/><g class="label" style="" transform="translate(-46.828125, -18)"><rect/><foreignObject width="93.65625" height="36"><div xmlns="http://www.w3.org/1999/xhtml" style="display: inline-block; white-space: nowrap;"><span class="nodeLabel">Worker span<br />job</span></div></foreignObject></g></g><g class="node default default flowchart-label" id="flowchart-SagaSpan-3" data-node="true" data-id="SagaSpan" transform="translate(800.71875, 164.5)"><rect class="basic label-container" style="" rx="0" ry="0" x="-46.6171875" y="-25.5" width="93.234375" height="51"/><g class="label" style="" transform="translate(-39.1171875, -18)"><rect/><foreignObject width="78.234375" height="36"><div xmlns="http://www.w3.org/1999/xhtml" style="display: inline-block; white-space: nowrap;"><span class="nodeLabel">Saga span<br />step</span></div></foreignObject></g></g><g class="node default default flowchart-label" id="flowchart-In-0" data-node="true" data-id="In" transform="translate(51.4453125, 99.5)"><rect class="basic label-container" style="" rx="0" ry="0" x="-51.4453125" y="-25.5" width="102.890625" height="51"/><g class="label" style="" transform="translate(-43.9453125, -18)"><rect/><foreignObject width="87.890625" height="36"><div xmlns="http://www.w3.org/1999/xhtml" style="display: inline-block; white-space: nowrap;"><span class="nodeLabel">Inbound<br />traceparent</span></div></foreignObject></g></g><g class="node default default flowchart-label" id="flowchart-Otlp-10" data-node="true" data-id="Otlp" transform="translate(1082.8515625, 95)"><rect class="basic label-container" style="" rx="0" ry="0" x="-61.3046875" y="-16.5" width="122.609375" height="33"/><g class="label" style="" transform="translate(-53.8046875, -9)"><rect/><foreignObject width="107.609375" height="18"><div xmlns="http://www.w3.org/1999/xhtml" style="display: inline-block; white-space: nowrap;"><span class="nodeLabel">OTLP collector</span></div></foreignObject></g></g></g></g></g></svg>