<svg id="my-svg" width="100%" xmlns="http://www.w3.org/2000/svg" xmlns:xlink="http://www.w3.org/1999/xlink" class="statediagram" style="max-width: 626.102px; background-color: transparent;" viewBox="0 0 626.1015625 649" role="graphics-document document" aria-roledescription="stateDiagram"><style>#my-svg{font-family:DM Sans,Segoe UI,system-ui,-apple-system,sans-serif;font-size:15px;fill:#fcfaf6;}#my-svg .error-icon{fill:#12100e;}#my-svg .error-text{fill:#fcfaf6;stroke:#fcfaf6;}#my-svg .edge-thickness-normal{stroke-width:2px;}#my-svg .edge-thickness-thick{stroke-width:3.5px;}#my-svg .edge-pattern-solid{stroke-dasharray:0;}#my-svg .edge-pattern-dashed{stroke-dasharray:3;}#my-svg .edge-pattern-dotted{stroke-dasharray:2;}#my-svg .marker{fill:#bd774c;stroke:#bd774c;}#my-svg .marker.cross{stroke:#bd774c;}#my-svg svg{font-family:DM Sans,Segoe UI,system-ui,-apple-system,sans-serif;font-size:15px;}#my-svg defs #statediagram-barbEnd{fill:#bd774c;stroke:#bd774c;}#my-svg g.stateGroup text{fill:#bd774c;stroke:none;font-size:10px;}#my-svg g.stateGroup text{fill:#fcfaf6;stroke:none;font-size:10px;}#my-svg g.stateGroup .state-title{font-weight:bolder;fill:#1b1916;}#my-svg g.stateGroup rect{fill:#1b1916;stroke:#bd774c;}#my-svg g.stateGroup line{stroke:#bd774c;stroke-width:1;}#my-svg .transition{stroke:#bd774c;stroke-width:1;fill:none;}#my-svg .stateGroup .composit{fill:transparent;border-bottom:1px;}#my-svg .stateGroup .alt-composit{fill:#e0e0e0;border-bottom:1px;}#my-svg .state-note{stroke:#bd774c;fill:#282623;}#my-svg .state-note text{fill:#fcfaf6;stroke:none;font-size:10px;}#my-svg .stateLabel .box{stroke:none;stroke-width:0;fill:#1b1916;opacity:0.5;}#my-svg .edgeLabel .label rect{fill:#1b1916;opacity:0.5;}#my-svg .edgeLabel .label text{fill:#fcfaf6;}#my-svg .label div .edgeLabel{color:#fcfaf6;}#my-svg .stateLabel text{fill:#1b1916;font-size:10px;font-weight:bold;}#my-svg .node circle.state-start{fill:#bd774c;stroke:#bd774c;}#my-svg .node .fork-join{fill:#bd774c;stroke:#bd774c;}#my-svg .node circle.state-end{fill:#bd774c;stroke:transparent;stroke-width:1.5;}#my-svg .end-state-inner{fill:#12100e;stroke-width:1.5;}#my-svg .node rect{fill:#1b1916;stroke:#bd774c;stroke-width:1px;}#my-svg .node polygon{fill:#1b1916;stroke:#bd774c;stroke-width:1px;}#my-svg #statediagram-barbEnd{fill:#bd774c;}#my-svg .statediagram-cluster rect{fill:#1b1916;stroke:#bd774c;stroke-width:1px;}#my-svg .cluster-label,#my-svg .nodeLabel{color:#1b1916;}#my-svg .statediagram-cluster rect.outer{rx:5px;ry:5px;}#my-svg .statediagram-state .divider{stroke:#bd774c;}#my-svg .statediagram-state .title-state{rx:5px;ry:5px;}#my-svg .statediagram-cluster.statediagram-cluster .inner{fill:#12100e;}#my-svg .statediagram-cluster.statediagram-cluster-alt .inner{fill:#12100e;}#my-svg .statediagram-cluster .inner{rx:0;ry:0;}#my-svg .statediagram-state rect.basic{rx:5px;ry:5px;}#my-svg .statediagram-state rect.divider{stroke-dasharray:10,10;fill:#12100e;}#my-svg .note-edge{stroke-dasharray:5;}#my-svg .statediagram-note rect{fill:#282623;stroke:#bd774c;stroke-width:1px;rx:0;ry:0;}#my-svg .statediagram-note rect{fill:#282623;stroke:#bd774c;stroke-width:1px;rx:0;ry:0;}#my-svg .statediagram-note text{fill:#fcfaf6;}#my-svg .statediagram-note .nodeLabel{color:#fcfaf6;}#my-svg .statediagram .edgeLabel{color:red;}#my-svg #dependencyStart,#my-svg #dependencyEnd{fill:#bd774c;stroke:#bd774c;stroke-width:1;}#my-svg .statediagramTitleText{text-anchor:middle;font-size:18px;fill:#fcfaf6;}#my-svg :root{--mermaid-font-family:"trebuchet ms",verdana,arial,sans-serif;}</style><g><defs><marker id="my-svg_statediagram-barbEnd" refX="19" refY="7" markerWidth="20" markerHeight="14" markerUnits="strokeWidth" orient="auto"><path d="M 19,7 L9,13 L14,7 L9,1 Z"/></marker></defs><g class="root"><g class="clusters"><g class="note-cluster" id="Shipping----parent"><rect x="8" y="375" width="352.8125" height="202" fill="none"/></g></g><g class="edgePaths"><path d="M378.148,22L378.148,26.167C378.148,30.333,378.148,38.667,378.148,47C378.148,55.333,378.148,63.667,378.148,67.833L378.148,72" id="edge0" class="edge-thickness-normal transition" style="fill:none" marker-end="url(#my-svg_statediagram-barbEnd)"/><path d="M378.148,105L378.148,110.667C378.148,116.333,378.148,127.667,378.148,139C378.148,150.333,378.148,161.667,378.148,167.333L378.148,173" id="edge1" class="edge-thickness-normal transition" style="fill:none" marker-end="url(#my-svg_statediagram-barbEnd)"/><path d="M378.148,206L378.148,211.667C378.148,217.333,378.148,228.667,378.148,240C378.148,251.333,378.148,262.667,378.148,268.333L378.148,274" id="edge2" class="edge-thickness-normal transition" style="fill:none" marker-end="url(#my-svg_statediagram-barbEnd)"/><path d="M336.75,302.489L314.586,308.907C292.422,315.326,248.094,328.163,225.93,340.248C203.766,352.333,203.766,363.667,203.766,373.5C203.766,383.333,203.766,391.667,203.766,395.833L203.766,400" id="edge3" class="edge-thickness-normal transition" style="fill:none" marker-end="url(#my-svg_statediagram-barbEnd)"/><path d="M226.259,433L233.984,438.667C241.709,444.333,257.159,455.667,285.554,468.5C313.949,481.333,355.29,495.667,375.96,502.833L396.63,510" id="edge4" class="edge-thickness-normal transition" style="fill:none" marker-end="url(#my-svg_statediagram-barbEnd)"/><path d="M444.219,543L444.219,548.667C444.219,554.333,444.219,565.667,444.219,575.5C444.219,585.333,444.219,593.667,453.815,602.644C463.411,611.621,482.604,621.242,492.201,626.053L501.797,630.863" id="edge5" class="edge-thickness-normal transition" style="fill:none" marker-end="url(#my-svg_statediagram-barbEnd)"/><path d="M419.547,301.291L444.938,307.909C470.328,314.527,521.109,327.764,546.5,340.048C571.891,352.333,571.891,363.667,571.891,373.5C571.891,383.333,571.891,391.667,571.891,395.833L571.891,400" id="edge6" class="edge-thickness-normal transition" style="fill:none" marker-end="url(#my-svg_statediagram-barbEnd)"/><path d="M571.891,433L571.891,438.667C571.891,444.333,571.891,455.667,571.891,468.5C571.891,481.333,571.891,495.667,571.891,502.833L571.891,510" id="edge7" class="edge-thickness-normal transition" style="fill:none" marker-end="url(#my-svg_statediagram-barbEnd)"/><path d="M571.891,543L571.891,548.667C571.891,554.333,571.891,565.667,571.891,575.5C571.891,585.333,571.891,593.667,562.294,602.644C552.698,611.621,533.505,621.242,523.909,626.053L514.312,630.863" id="edge8" class="edge-thickness-normal transition" style="fill:none" marker-end="url(#my-svg_statediagram-barbEnd)"/><path d="M197.44,433L195.268,438.667C193.096,444.333,188.751,455.667,186.579,467C184.406,478.333,184.406,489.667,184.406,495.333L184.406,501" class="edge-thickness-normal transition note-edge" style="fill:none"/></g><g class="edgeLabels"><g class="edgeLabel"><g class="label" transform="translate(0, 0)"><rect rx="0" ry="0" width="0" height="0"/><foreignObject width="0" height="0"><div xmlns="http://www.w3.org/1999/xhtml" style="display: inline-block; white-space: nowrap;"><span class="edgeLabel"></span></div></foreignObject></g></g><g class="edgeLabel" transform="translate(378.1484375, 139)"><g class="label" transform="translate(-28.1953125, -9)"><rect rx="0" ry="0" width="56.390625" height="18"/><foreignObject width="56.390625" height="18"><div xmlns="http://www.w3.org/1999/xhtml" style="display: inline-block; white-space: nowrap;"><span class="edgeLabel">reserve</span></div></foreignObject></g></g><g class="edgeLabel" transform="translate(378.1484375, 240)"><g class="label" transform="translate(-25.8046875, -9)"><rect rx="0" ry="0" width="51.609375" height="18"/><foreignObject width="51.609375" height="18"><div xmlns="http://www.w3.org/1999/xhtml" style="display: inline-block; white-space: nowrap;"><span class="edgeLabel">charge</span></div></foreignObject></g></g><g class="edgeLabel" transform="translate(203.765625, 341)"><g class="label" transform="translate(-15.5078125, -9)"><rect rx="0" ry="0" width="31.015625" height="18"/><foreignObject width="31.015625" height="18"><div xmlns="http://www.w3.org/1999/xhtml" style="display: inline-block; white-space: nowrap;"><span class="edgeLabel">ship</span></div></foreignObject></g></g><g class="edgeLabel" transform="translate(272.609375, 467)"><g class="label" transform="translate(-18.71875, -9)"><rect rx="0" ry="0" width="37.4375" height="18"/><foreignObject width="37.4375" height="18"><div xmlns="http://www.w3.org/1999/xhtml" style="display: inline-block; white-space: nowrap;"><span class="edgeLabel">done</span></div></foreignObject></g></g><g class="edgeLabel"><g class="label" transform="translate(0, 0)"><rect rx="0" ry="0" width="0" height="0"/><foreignObject width="0" height="0"><div xmlns="http://www.w3.org/1999/xhtml" style="display: inline-block; white-space: nowrap;"><span class="edgeLabel"></span></div></foreignObject></g></g><g class="edgeLabel" transform="translate(571.890625, 341)"><g class="label" transform="translate(-11.40625, -9)"><rect rx="0" ry="0" width="22.8125" height="18"/><foreignObject width="22.8125" height="18"><div xmlns="http://www.w3.org/1999/xhtml" style="display: inline-block; white-space: nowrap;"><span class="edgeLabel">fail</span></div></foreignObject></g></g><g class="edgeLabel" transform="translate(571.890625, 467)"><g class="label" transform="translate(-46.2109375, -9)"><rect rx="0" ry="0" width="92.421875" height="18"/><foreignObject width="92.421875" height="18"><div xmlns="http://www.w3.org/1999/xhtml" style="display: inline-block; white-space: nowrap;"><span class="edgeLabel">compensate</span></div></foreignObject></g></g><g class="edgeLabel"><g class="label" transform="translate(0, 0)"><rect rx="0" ry="0" width="0" height="0"/><foreignObject width="0" height="0"><div xmlns="http://www.w3.org/1999/xhtml" style="display: inline-block; white-space: nowrap;"><span class="edgeLabel"></span></div></foreignObject></g></g><g class="edgeLabel"><g class="label" transform="translate(0, 0)"><rect rx="0" ry="0" width="0" height="0"/><foreignObject width="0" height="0"><div xmlns="http://www.w3.org/1999/xhtml" style="display: inline-block; white-space: nowrap;"><span class="edgeLabel"></span></div></foreignObject></g></g></g><g class="nodes"><g class="node default" id="state-root_start-0" data-node="true" data-id="root_start" transform="translate(378.1484375, 15)"><circle class="state-start" r="7" width="14" height="14"/></g><g class="node  statediagram-state undefined" id="state-Pending-1" data-node="true" data-id="Pending" transform="translate(378.1484375, 88.5)"><rect class="basic label-container" style="" x="-37.484375" y="-16.5" width="74.96875" height="33"/><g class="label" style="" transform="translate(-29.984375, -9)"><rect/><foreignObject width="59.96875" height="18"><div xmlns="http://www.w3.org/1999/xhtml" style="display: inline-block; white-space: nowrap;"><span class="nodeLabel">Pending</span></div></foreignObject></g></g><g class="node  statediagram-state undefined" id="state-Reserving-2" data-node="true" data-id="Reserving" transform="translate(378.1484375, 189.5)"><rect class="basic label-container" style="" x="-44.6328125" y="-16.5" width="89.265625" height="33"/><g class="label" style="" transform="translate(-37.1328125, -9)"><rect/><foreignObject width="74.265625" height="18"><div xmlns="http://www.w3.org/1999/xhtml" style="display: inline-block; white-space: nowrap;"><span class="nodeLabel">Reserving</span></div></foreignObject></g></g><g class="node  statediagram-state undefined" id="state-Charging-6" data-node="true" data-id="Charging" transform="translate(378.1484375, 290.5)"><rect class="basic label-container" style="" x="-41.3984375" y="-16.5" width="82.796875" height="33"/><g class="label" style="" transform="translate(-33.8984375, -9)"><rect/><foreignObject width="67.796875" height="18"><div xmlns="http://www.w3.org/1999/xhtml" style="display: inline-block; white-space: nowrap;"><span class="nodeLabel">Charging</span></div></foreignObject></g></g><g class="node  statediagram-state undefined" id="state-Shipping-9" data-node="true" data-id="Shipping" transform="translate(203.765625, 416.5)"><rect class="basic label-container" style="" x="-40.21875" y="-16.5" width="80.4375" height="33"/><g class="label" style="" transform="translate(-32.71875, -9)"><rect/><foreignObject width="65.4375" height="18"><div xmlns="http://www.w3.org/1999/xhtml" style="display: inline-block; white-space: nowrap;"><span class="nodeLabel">Shipping</span></div></foreignObject></g></g><g class="node  statediagram-state undefined" id="state-Completed-5" data-node="true" data-id="Completed" transform="translate(444.21875, 526.5)"><rect class="basic label-container" style="" x="-48.40625" y="-16.5" width="96.8125" height="33"/><g class="label" style="" transform="translate(-40.90625, -9)"><rect/><foreignObject width="81.8125" height="18"><div xmlns="http://www.w3.org/1999/xhtml" style="display: inline-block; white-space: nowrap;"><span class="nodeLabel">Completed</span></div></foreignObject></g></g><g class="node default" id="state-root_end-8" data-node="true" data-id="root_end" transform="translate(508.0546875, 634)"><circle class="state-start" r="7" width="14" height="14"/><circle class="state-end" r="5" width="10" height="10"/></g><g class="node  statediagram-state undefined" id="state-Refunding-7" data-node="true" data-id="Refunding" transform="translate(571.890625, 416.5)"><rect class="basic label-container" style="" x="-45.5" y="-16.5" width="91" height="33"/><g class="label" style="" transform="translate(-38, -9)"><rect/><foreignObject width="76" height="18"><div xmlns="http://www.w3.org/1999/xhtml" style="display: inline-block; white-space: nowrap;"><span class="nodeLabel">Refunding</span></div></foreignObject></g></g><g class="node  statediagram-state undefined" id="state-Failed-8" data-node="true" data-id="Failed" transform="translate(571.890625, 526.5)"><rect class="basic label-container" style="" x="-29.265625" y="-16.5" width="58.53125" height="33"/><g class="label" style="" transform="translate(-21.765625, -9)"><rect/><foreignObject width="43.53125" height="18"><div xmlns="http://www.w3.org/1999/xhtml" style="display: inline-block; white-space: nowrap;"><span class="nodeLabel">Failed</span></div></foreignObject></g></g><g class="node statediagram-note" id="state-Shipping----note-9" data-node="true" data-id="Shipping----note-9" transform="translate(184.40625, 526.5)"><rect x="-141.40625" y="-25.5" width="282.8125" height="51"/><g class="label" style="" transform="translate(-133.90625, -18)"><rect/><foreignObject width="267.8125" height="36"><div xmlns="http://www.w3.org/1999/xhtml" style="display: inline-block; white-space: nowrap;"><span class="nodeLabel">Each transition persists state to the<br />        checkpoint store (KV / Prisma).</span></div></foreignObject></g></g></g></g></g></svg>