<svg id="my-svg" width="100%" xmlns="http://www.w3.org/2000/svg" xmlns:xlink="http://www.w3.org/1999/xlink" style="max-width: 720.469px; background-color: transparent;" viewBox="-8 -8 720.46875 407.267822265625" role="graphics-document document" aria-roledescription="flowchart-v2"><style>#my-svg{font-family:DM Sans,Segoe UI,system-ui,-apple-system,sans-serif;font-size:15px;fill:#fcfaf6;}#my-svg .error-icon{fill:#12100e;}#my-svg .error-text{fill:#fcfaf6;stroke:#fcfaf6;}#my-svg .edge-thickness-normal{stroke-width:2px;}#my-svg .edge-thickness-thick{stroke-width:3.5px;}#my-svg .edge-pattern-solid{stroke-dasharray:0;}#my-svg .edge-pattern-dashed{stroke-dasharray:3;}#my-svg .edge-pattern-dotted{stroke-dasharray:2;}#my-svg .marker{fill:#bd774c;stroke:#bd774c;}#my-svg .marker.cross{stroke:#bd774c;}#my-svg svg{font-family:DM Sans,Segoe UI,system-ui,-apple-system,sans-serif;font-size:15px;}#my-svg .label{font-family:DM Sans,Segoe UI,system-ui,-apple-system,sans-serif;color:#fcfaf6;}#my-svg .cluster-label text{fill:#fcfaf6;}#my-svg .cluster-label span,#my-svg p{color:#fcfaf6;}#my-svg .label text,#my-svg span,#my-svg p{fill:#fcfaf6;color:#fcfaf6;}#my-svg .node rect,#my-svg .node circle,#my-svg .node ellipse,#my-svg .node polygon,#my-svg .node path{fill:#1b1916;stroke:#bd774c;stroke-width:1px;}#my-svg .flowchart-label text{text-anchor:middle;}#my-svg .node .katex path{fill:#000;stroke:#000;stroke-width:1px;}#my-svg .node .label{text-align:center;}#my-svg .node.clickable{cursor:pointer;}#my-svg .arrowheadPath{fill:rgba(255, 255, 255, 0);}#my-svg .edgePath .path{stroke:#bd774c;stroke-width:2.0px;}#my-svg .flowchart-link{stroke:#bd774c;fill:none;}#my-svg .edgeLabel{background-color:#090806;text-align:center;}#my-svg .edgeLabel rect{opacity:0.5;background-color:#090806;fill:#090806;}#my-svg .labelBkg{background-color:rgba(9, 8, 6, 0.5);}#my-svg .cluster rect{fill:#12100e;stroke:#5c5b57;stroke-width:1px;}#my-svg .cluster text{fill:#fcfaf6;}#my-svg .cluster span,#my-svg p{color:#fcfaf6;}#my-svg div.mermaidTooltip{position:absolute;text-align:center;max-width:200px;padding:2px;font-family:DM Sans,Segoe UI,system-ui,-apple-system,sans-serif;font-size:12px;background:#12100e;border:1px solid #5c5b57;border-radius:2px;pointer-events:none;z-index:100;}#my-svg .flowchartTitleText{text-anchor:middle;font-size:18px;fill:#fcfaf6;}#my-svg :root{--mermaid-font-family:"trebuchet ms",verdana,arial,sans-serif;}</style><g><marker id="my-svg_flowchart-pointEnd" class="marker flowchart" viewBox="0 0 10 10" refX="6" refY="5" markerUnits="userSpaceOnUse" markerWidth="12" markerHeight="12" orient="auto"><path d="M 0 0 L 10 5 L 0 10 z" class="arrowMarkerPath" style="stroke-width: 1; stroke-dasharray: 1, 0;"/></marker><marker id="my-svg_flowchart-pointStart" class="marker flowchart" viewBox="0 0 10 10" refX="4.5" refY="5" markerUnits="userSpaceOnUse" markerWidth="12" markerHeight="12" orient="auto"><path d="M 0 5 L 10 10 L 10 0 z" class="arrowMarkerPath" style="stroke-width: 1; stroke-dasharray: 1, 0;"/></marker><marker id="my-svg_flowchart-circleEnd" class="marker flowchart" viewBox="0 0 10 10" refX="11" refY="5" markerUnits="userSpaceOnUse" markerWidth="11" markerHeight="11" orient="auto"><circle cx="5" cy="5" r="5" class="arrowMarkerPath" style="stroke-width: 1; stroke-dasharray: 1, 0;"/></marker><marker id="my-svg_flowchart-circleStart" class="marker flowchart" viewBox="0 0 10 10" refX="-1" refY="5" markerUnits="userSpaceOnUse" markerWidth="11" markerHeight="11" orient="auto"><circle cx="5" cy="5" r="5" class="arrowMarkerPath" style="stroke-width: 1; stroke-dasharray: 1, 0;"/></marker><marker id="my-svg_flowchart-crossEnd" class="marker cross flowchart" viewBox="0 0 11 11" refX="12" refY="5.2" markerUnits="userSpaceOnUse" markerWidth="11" markerHeight="11" orient="auto"><path d="M 1,1 l 9,9 M 10,1 l -9,9" class="arrowMarkerPath" style="stroke-width: 2; stroke-dasharray: 1, 0;"/></marker><marker id="my-svg_flowchart-crossStart" class="marker cross flowchart" viewBox="0 0 11 11" refX="-1" refY="5.2" markerUnits="userSpaceOnUse" markerWidth="11" markerHeight="11" orient="auto"><path d="M 1,1 l 9,9 M 10,1 l -9,9" class="arrowMarkerPath" style="stroke-width: 2; stroke-dasharray: 1, 0;"/></marker><g class="root"><g class="clusters"><g class="cluster default flowchart-label" id="Subscriptions"><rect style="" rx="0" ry="0" x="537.421875" y="0" width="167.046875" height="269"/><g class="cluster-label" transform="translate(570.4375, 0)"><foreignObject width="101.015625" height="18"><div xmlns="http://www.w3.org/1999/xhtml" style="display: inline-block; white-space: nowrap;"><span class="nodeLabel">Subscriptions</span></div></foreignObject></g></g><g class="cluster default flowchart-label" id="Producers"><rect style="" rx="0" ry="0" x="0" y="41.5" width="128.265625" height="269"/><g class="cluster-label" transform="translate(26.984375, 41.5)"><foreignObject width="74.296875" height="18"><div xmlns="http://www.w3.org/1999/xhtml" style="display: inline-block; white-space: nowrap;"><span class="nodeLabel">Producers</span></div></foreignObject></g></g></g><g class="edgePaths"><path d="M103.266,93L107.432,93C111.599,93,119.932,93,132.974,93C146.016,93,163.766,93,186.751,101.754C209.735,110.508,237.955,128.015,252.065,136.769L266.175,145.523" id="L-Svc-Log-0" class="edge-thickness-normal edge-pattern-solid flowchart-link LS-Svc LE-Log" style="fill:none;" marker-end="url(#my-svg_flowchart-pointEnd)"/><path d="M94.258,176L99.926,176C105.594,176,116.93,176,131.473,176C146.016,176,163.766,176,180.632,175.866C197.499,175.732,213.483,175.464,221.475,175.33L229.466,175.196" id="L-Saga-Log-0" class="edge-thickness-normal edge-pattern-solid flowchart-link LS-Saga LE-Log" style="fill:none;" marker-end="url(#my-svg_flowchart-pointEnd)"/><path d="M101.406,259L105.883,259C110.359,259,119.313,259,132.664,259C146.016,259,163.766,259,187.113,249.536C210.46,240.073,239.405,221.145,253.877,211.681L268.35,202.218" id="L-Trig-Log-0" class="edge-thickness-normal edge-pattern-solid flowchart-link LS-Trig LE-Log" style="fill:none;" marker-end="url(#my-svg_flowchart-pointEnd)"/><path d="M333.982,199.317L355.503,224.036C377.024,248.756,420.067,298.195,453.974,322.914C487.88,347.634,512.651,347.634,528.32,347.634C543.989,347.634,550.555,347.634,553.839,347.634L557.122,347.634" id="L-Log-Store-0" class="edge-thickness-normal edge-pattern-solid flowchart-link LS-Log LE-Store" style="fill:none;" marker-end="url(#my-svg_flowchart-pointEnd)"/><path d="M343.329,148.317L363.293,132.181C383.256,116.045,423.183,83.772,455.531,67.636C487.88,51.5,512.651,51.5,529.196,51.5C545.741,51.5,554.06,51.5,558.22,51.5L562.38,51.5" id="L-Log-A-0" class="edge-thickness-normal edge-pattern-solid flowchart-link LS-Log LE-A" style="fill:none;" marker-end="url(#my-svg_flowchart-pointEnd)"/><path d="M388.797,153.807L401.182,150.589C413.568,147.372,438.339,140.936,463.109,137.718C487.88,134.5,512.651,134.5,529.195,134.5C545.739,134.5,554.055,134.5,558.214,134.5L562.372,134.5" id="L-Log-B-0" class="edge-thickness-normal edge-pattern-solid flowchart-link LS-Log LE-B" style="fill:none;" marker-end="url(#my-svg_flowchart-pointEnd)"/><path d="M388.797,196.049L401.182,199.624C413.568,203.199,438.339,210.35,463.109,213.925C487.88,217.5,512.651,217.5,529.179,217.5C545.707,217.5,553.993,217.5,558.135,217.5L562.278,217.5" id="L-Log-C-0" class="edge-thickness-normal edge-pattern-solid flowchart-link LS-Log LE-C" style="fill:none;" marker-end="url(#my-svg_flowchart-pointEnd)"/></g><g class="edgeLabels"><g class="edgeLabel" transform="translate(181.515625, 93)"><g class="label" transform="translate(-28.25, -9)"><foreignObject width="56.5" height="18"><div xmlns="http://www.w3.org/1999/xhtml" style="display: inline-block; white-space: nowrap;"><span class="edgeLabel">append</span></div></foreignObject></g></g><g class="edgeLabel" transform="translate(181.515625, 176)"><g class="label" transform="translate(-28.25, -9)"><foreignObject width="56.5" height="18"><div xmlns="http://www.w3.org/1999/xhtml" style="display: inline-block; white-space: nowrap;"><span class="edgeLabel">append</span></div></foreignObject></g></g><g class="edgeLabel" transform="translate(181.515625, 259)"><g class="label" transform="translate(-28.25, -9)"><foreignObject width="56.5" height="18"><div xmlns="http://www.w3.org/1999/xhtml" style="display: inline-block; white-space: nowrap;"><span class="edgeLabel">append</span></div></foreignObject></g></g><g class="edgeLabel"><g class="label" transform="translate(0, 0)"><foreignObject width="0" height="0"><div xmlns="http://www.w3.org/1999/xhtml" style="display: inline-block; white-space: nowrap;"><span class="edgeLabel"></span></div></foreignObject></g></g><g class="edgeLabel" transform="translate(463.109375, 51.5)"><g class="label" transform="translate(-49.3125, -9)"><foreignObject width="98.625" height="18"><div xmlns="http://www.w3.org/1999/xhtml" style="display: inline-block; white-space: nowrap;"><span class="edgeLabel">at-least-once</span></div></foreignObject></g></g><g class="edgeLabel" transform="translate(463.109375, 134.5)"><g class="label" transform="translate(-49.3125, -9)"><foreignObject width="98.625" height="18"><div xmlns="http://www.w3.org/1999/xhtml" style="display: inline-block; white-space: nowrap;"><span class="edgeLabel">at-least-once</span></div></foreignObject></g></g><g class="edgeLabel" transform="translate(463.109375, 217.5)"><g class="label" transform="translate(-49.3125, -9)"><foreignObject width="98.625" height="18"><div xmlns="http://www.w3.org/1999/xhtml" style="display: inline-block; white-space: nowrap;"><span class="edgeLabel">at-least-once</span></div></foreignObject></g></g></g><g class="nodes"><g class="node default default flowchart-label" id="flowchart-A-13" data-node="true" data-id="A" transform="translate(620.9453125, 51.5)"><rect class="basic label-container" style="" rx="0" ry="0" x="-53.265625" y="-16.5" width="106.53125" height="33"/><g class="label" style="" transform="translate(-45.765625, -9)"><rect/><foreignObject width="91.53125" height="18"><div xmlns="http://www.w3.org/1999/xhtml" style="display: inline-block; white-space: nowrap;"><span class="nodeLabel">Consumer A</span></div></foreignObject></g></g><g class="node default default flowchart-label" id="flowchart-B-14" data-node="true" data-id="B" transform="translate(620.9453125, 134.5)"><rect class="basic label-container" style="" rx="0" ry="0" x="-53.2734375" y="-16.5" width="106.546875" height="33"/><g class="label" style="" transform="translate(-45.7734375, -9)"><rect/><foreignObject width="91.546875" height="18"><div xmlns="http://www.w3.org/1999/xhtml" style="display: inline-block; white-space: nowrap;"><span class="nodeLabel">Consumer B</span></div></foreignObject></g></g><g class="node default default flowchart-label" id="flowchart-C-15" data-node="true" data-id="C" transform="translate(620.9453125, 217.5)"><rect class="basic label-container" style="" rx="0" ry="0" x="-53.3671875" y="-16.5" width="106.734375" height="33"/><g class="label" style="" transform="translate(-45.8671875, -9)"><rect/><foreignObject width="91.734375" height="18"><div xmlns="http://www.w3.org/1999/xhtml" style="display: inline-block; white-space: nowrap;"><span class="nodeLabel">Consumer C</span></div></foreignObject></g></g><g class="node default default flowchart-label" id="flowchart-Svc-0" data-node="true" data-id="Svc" transform="translate(64.1328125, 93)"><rect class="basic label-container" style="" rx="0" ry="0" x="-39.1328125" y="-16.5" width="78.265625" height="33"/><g class="label" style="" transform="translate(-31.6328125, -9)"><rect/><foreignObject width="63.265625" height="18"><div xmlns="http://www.w3.org/1999/xhtml" style="display: inline-block; white-space: nowrap;"><span class="nodeLabel">Services</span></div></foreignObject></g></g><g class="node default default flowchart-label" id="flowchart-Saga-1" data-node="true" data-id="Saga" transform="translate(64.1328125, 176)"><rect class="basic label-container" style="" rx="0" ry="0" x="-30.125" y="-16.5" width="60.25" height="33"/><g class="label" style="" transform="translate(-22.625, -9)"><rect/><foreignObject width="45.25" height="18"><div xmlns="http://www.w3.org/1999/xhtml" style="display: inline-block; white-space: nowrap;"><span class="nodeLabel">Sagas</span></div></foreignObject></g></g><g class="node default default flowchart-label" id="flowchart-Trig-2" data-node="true" data-id="Trig" transform="translate(64.1328125, 259)"><rect class="basic label-container" style="" rx="0" ry="0" x="-37.2734375" y="-16.5" width="74.546875" height="33"/><g class="label" style="" transform="translate(-29.7734375, -9)"><rect/><foreignObject width="59.546875" height="18"><div xmlns="http://www.w3.org/1999/xhtml" style="display: inline-block; white-space: nowrap;"><span class="nodeLabel">Triggers</span></div></foreignObject></g></g><g class="node default default flowchart-label" id="flowchart-Log-3" data-node="true" data-id="Log" transform="translate(311.78125, 173.81695938110352)"><rect class="basic label-container" style="" rx="0" ry="0" x="-77.015625" y="-25.5" width="154.03125" height="51"/><g class="label" style="" transform="translate(-69.515625, -18)"><rect/><foreignObject width="139.03125" height="36"><div xmlns="http://www.w3.org/1999/xhtml" style="display: inline-block; white-space: nowrap;"><span class="nodeLabel">Append-only log<br />offset n, n+1, n+2</span></div></foreignObject></g></g><g class="node default default flowchart-label" id="flowchart-Store-4" data-node="true" data-id="Store" transform="translate(620.9453125, 347.63391876220703)"><path style="" d="M 0,12.089277645084243 a 58.5234375,12.089277645084243 0,0,0 117.046875 0 a 58.5234375,12.089277645084243 0,0,0 -117.046875 0 l 0,63.089277645084245 a 58.5234375,12.089277645084243 0,0,0 117.046875 0 l 0,-63.089277645084245" transform="translate(-58.5234375,-43.633916467626364)"/><g class="label" style="" transform="translate(-51.0234375, -18)"><rect/><foreignObject width="102.046875" height="36"><div xmlns="http://www.w3.org/1999/xhtml" style="display: inline-block; white-space: nowrap;"><span class="nodeLabel">Durable store<br />KV / Prisma</span></div></foreignObject></g></g></g></g></g></svg>